<svg width="423" height="426" viewBox="0 0 423 426" fill="none" xmlns="http://www.w3.org/2000/svg">
<path d="M389.873 383.299V420.877H32.8809V383.299H61.0645H361.689H389.873Z" fill="#AF3B92"/>
<path d="M42.7451 393.398H70.9287H371.554H389.873V383.299H361.689H61.0645H32.8809V420.877H42.7451V393.398Z" fill="#AF3B92"/>
<path d="M210.86 193.032C210.1 193.032 209.346 192.848 208.662 192.485L175.452 174.899C174.351 174.316 173.527 173.32 173.161 172.13L165.345 146.737C164.978 145.546 165.099 144.258 165.683 143.157L227.236 26.918C227.819 25.8169 228.816 24.993 230.006 24.6267C231.197 24.2621 232.484 24.3824 233.586 24.9658L250.187 33.7591C252.478 34.9728 253.353 37.8166 252.138 40.1088C250.924 42.402 248.078 43.2739 245.788 42.061L233.339 35.467L174.896 145.833L181.568 167.507L211.339 183.273L233.013 176.609L249.689 145.119C250.903 142.827 253.746 141.954 256.038 143.166C258.331 144.38 259.205 147.222 257.992 149.515L240.405 182.726C239.822 183.827 238.825 184.652 237.635 185.018L212.24 192.824C211.789 192.963 211.324 193.032 210.86 193.032Z" fill="#AF3B92"/>
<path d="M280.216 102.197C279.475 102.197 278.723 102.02 278.022 101.649C275.73 100.436 274.855 97.5928 276.069 95.3006L291.457 66.2423L278.999 59.6464C276.707 58.4327 275.832 55.5899 277.046 53.2976C278.261 51.0054 281.103 50.1307 283.396 51.3436L300.005 60.1368C301.106 60.7202 301.93 61.7161 302.296 62.9073C302.663 64.0985 302.541 65.3856 301.958 66.4866L284.372 99.6963C283.529 101.289 281.9 102.197 280.216 102.197Z" fill="#AF3B92"/>
<path d="M220.138 155.426C219.397 155.426 218.644 155.251 217.944 154.88L176.429 132.897C174.137 131.683 173.262 128.84 174.476 126.547C175.69 124.254 178.533 123.379 180.826 124.594L222.34 146.577C224.632 147.791 225.507 150.633 224.293 152.927C223.451 154.518 221.822 155.426 220.138 155.426Z" fill="#AF3B92"/>
<path d="M281.193 60.1942C280.452 60.1942 279.7 60.0176 278.999 59.6465L245.788 42.06C244.687 41.4775 243.862 40.4807 243.497 39.2895C243.131 38.0983 243.252 36.8112 243.835 35.7102L261.422 2.50054C262.637 0.207331 265.482 -0.6673 267.772 0.547413L300.982 18.134C303.274 19.3477 304.149 22.1905 302.935 24.4828L285.348 57.6925C284.506 59.2858 282.877 60.1942 281.193 60.1942ZM254.337 35.9563L279.245 49.1463L292.435 24.2395L267.528 11.0496L254.337 35.9563Z" fill="#AF3B92"/>
<path d="M255.781 248.714C255.04 248.714 254.287 248.538 253.587 248.168L137.357 186.624C135.065 185.41 134.19 182.567 135.404 180.274C136.618 177.981 139.46 177.106 141.754 178.321L257.983 239.865C260.275 241.078 261.15 243.921 259.936 246.214C259.093 247.806 257.465 248.714 255.781 248.714Z" fill="#AF3B92"/>
<path d="M361.688 387.998C359.721 387.998 357.889 386.754 357.233 384.785L347.689 356.15C342.797 341.484 329.123 331.629 313.664 331.629H275.664C273.069 331.629 270.966 329.527 270.966 326.932C270.966 324.337 273.069 322.235 275.664 322.235H313.664C333.173 322.235 350.428 334.669 356.6 353.179L366.145 381.814C366.965 384.274 365.636 386.935 363.175 387.755C362.682 387.92 362.181 387.998 361.688 387.998Z" fill="#AF3B92"/>
<path d="M61.0646 387.998C60.5724 387.998 60.0716 387.92 59.5784 387.755C57.1171 386.935 55.7868 384.275 56.6069 381.814L66.1518 353.18C72.3249 334.67 89.5799 322.236 109.089 322.236H191.535C194.129 322.236 196.232 324.338 196.232 326.933C196.232 329.528 194.129 331.63 191.535 331.63H109.089C93.6289 331.63 79.9561 341.484 75.0644 356.152L65.5195 384.786C64.8647 386.753 63.0319 387.998 61.0646 387.998Z" fill="#AF3B92"/>
<path d="M389.873 425.575C387.278 425.575 385.176 423.472 385.176 420.877V387.997H37.5781V420.877C37.5781 423.472 35.4747 425.575 32.8809 425.575C30.287 425.575 28.1836 423.472 28.1836 420.877V383.299C28.1836 380.705 30.287 378.602 32.8809 378.602H389.873C392.468 378.602 394.57 380.705 394.57 383.299V420.877C394.57 423.472 392.468 425.575 389.873 425.575Z" fill="#AF3B92"/>
<path d="M275.664 331.63H191.535C190.769 331.63 190.015 331.443 189.337 331.084L128.846 299.048C118.323 293.475 114.294 280.374 119.864 269.844L130.415 249.916C133.116 244.817 137.639 241.074 143.154 239.375C148.673 237.677 154.521 238.232 159.622 240.936L221.06 273.459C222.459 274.199 224.477 273.826 225.928 273.38C232.263 271.433 239.464 264.809 241.964 260.082L283.291 182.039C284.818 179.159 285.129 175.855 284.17 172.736C283.211 169.617 281.094 167.059 278.209 165.533L251.642 151.47C250.54 150.887 249.716 149.89 249.349 148.699C248.983 147.508 249.105 146.221 249.688 145.12L276.067 95.3007C276.651 94.1997 277.648 93.3758 278.838 93.0094C280.029 92.643 281.317 92.7642 282.417 93.3476L358.795 133.791C363.896 136.49 367.641 141.015 369.339 146.535C371.038 152.052 370.485 157.898 367.785 162.998L332.631 229.379C331.417 231.672 328.576 232.546 326.281 231.333C323.989 230.119 323.114 227.276 324.328 224.983L359.482 158.6C361.008 155.72 361.32 152.416 360.361 149.297C359.402 146.178 357.285 143.62 354.401 142.094L282.173 103.848L260.19 145.364L282.605 157.229C287.707 159.928 291.452 164.455 293.15 169.973C294.848 175.491 294.296 181.338 291.595 186.436L250.27 264.475C246.775 271.079 237.748 279.575 228.689 282.359C224.175 283.747 220.017 283.539 216.662 281.758L155.226 249.237C152.341 247.707 149.036 247.395 145.918 248.354C142.802 249.313 140.244 251.428 138.718 254.312L128.167 274.237C125.018 280.189 127.295 287.595 133.242 290.745L192.702 322.234H272.835L297.958 274.782C299.172 272.49 302.015 271.618 304.307 272.829C306.6 274.043 307.474 276.886 306.261 279.179L279.815 329.13C279 330.668 277.402 331.63 275.664 331.63Z" fill="#AF3B92"/>
<path d="M314.717 284.657C309.569 284.657 304.62 283.488 300.01 281.184C288.797 275.56 281.836 264.293 281.836 251.776C281.836 233.645 296.586 218.895 314.717 218.895C320.341 218.895 325.895 220.344 330.78 223.085C341.153 228.906 347.598 239.899 347.598 251.776C347.598 269.906 332.847 284.657 314.717 284.657ZM314.717 228.29C301.766 228.29 291.23 238.826 291.23 251.776C291.23 260.718 296.206 268.766 304.215 272.782C307.505 274.427 311.04 275.262 314.717 275.262C327.667 275.262 338.203 264.726 338.203 251.776C338.203 243.294 333.597 235.439 326.181 231.278C322.698 229.323 318.734 228.29 314.717 228.29Z" fill="#AF3B92"/>
<path d="M418.057 425.575H4.69727C2.10344 425.575 0 423.472 0 420.877C0 418.283 2.10344 416.18 4.69727 416.18H418.057C420.651 416.18 422.754 418.283 422.754 420.877C422.754 423.472 420.651 425.575 418.057 425.575Z" fill="#AF3B92"/>
</svg>
