<svg width="315" height="315" viewBox="0 0 315 315" fill="none" xmlns="http://www.w3.org/2000/svg">
<path d="M157.868 287.256C157.549 287.256 157.228 287.254 156.909 287.249C117.931 286.67 86.2212 250.066 86.2212 205.652V37H106.221V205.652C106.221 239.201 129.092 266.834 157.205 267.251C157.423 267.254 157.642 267.256 157.858 267.256C169.994 267.257 181.76 262.235 191.064 253.068C202.798 241.505 209.529 224.607 209.529 206.704V37H229.529V206.704C229.529 229.928 220.625 252.019 205.1 267.314C192.026 280.197 175.286 287.256 157.868 287.256Z" fill="white"/>
<path d="M157.878 287.256C157.876 287.256 157.876 287.256 157.876 287.256C157.555 287.256 157.23 287.254 156.908 287.249C117.93 286.67 86.2202 250.066 86.2202 205.653V84.4712H229.529V206.704C229.529 227.971 222.239 248.024 209.002 263.173C195.431 278.703 177.274 287.256 157.878 287.256ZM106.221 104.471V205.654C106.221 239.202 129.092 266.835 157.205 267.252L157.876 267.257C171.416 267.258 184.225 261.134 193.941 250.014C203.993 238.511 209.529 223.13 209.529 206.705V104.471H106.221Z" fill="white"/>
<path d="M245.75 27H70V47H245.75V27Z" fill="white"/>
<path d="M219.529 124.137H171.542V144.137H219.529V124.137Z" fill="white"/>
<path d="M219.529 160.804H155.542V180.804H219.529V160.804Z" fill="white"/>
<path d="M219.529 197.471H171.542V217.471H219.529V197.471Z" fill="white"/>
</svg>
