<?xml version="1.0" encoding="UTF-8"?>
<svg version="1.1" xmlns="http://www.w3.org/2000/svg" width="512" height="512">
<path d="M0 0 C168.96 0 337.92 0 512 0 C512 168.96 512 337.92 512 512 C343.04 512 174.08 512 0 512 C0 343.04 0 174.08 0 0 Z " fill="none" transform="translate(0,0)"/>
<path d="M0 0 C3.35922483 0.45172585 5.01664461 1.64476025 7.37231445 4.01586914 C8.32899773 4.96805077 8.32899773 4.96805077 9.30500793 5.93946838 C9.98423813 6.63104538 10.66346832 7.32262238 11.36328125 8.03515625 C12.07348923 8.7472374 12.7836972 9.45931854 13.51542664 10.19297791 C15.01925289 11.70352886 16.5194758 13.21767438 18.01635742 14.73510742 C20.28651458 17.03616092 22.56692014 19.32661928 24.84960938 21.61523438 C26.31311948 23.08792631 27.77602903 24.56121534 29.23828125 26.03515625 C29.91143875 26.71256363 30.58459625 27.38997101 31.27815247 28.08790588 C34.35193979 31.20731972 37.33653435 34.35469114 40.1784668 37.68725586 C44.86961538 43.10998843 49.99760436 48.10845934 55.08232117 53.15748596 C56.94392032 55.00615875 58.80223504 56.85807961 60.65979004 58.71081543 C64.60370565 62.6433811 68.55154876 66.57198899 72.5 70.5 C77.08055029 75.05683783 81.65941449 79.61534407 86.23405457 84.17811584 C88.05261291 85.99025805 89.87418796 87.79932843 91.69592285 89.60827637 C96.80471476 94.69468369 101.83258012 99.79613019 106.51309204 105.28601074 C108.92918849 108.07109461 111.53320274 110.657328 114.15234375 113.25 C114.69734024 113.79358154 115.24233673 114.33716309 115.80384827 114.8972168 C117.51269217 116.60054815 119.22501197 118.30033326 120.9375 120 C122.11026009 121.16773374 123.28278798 122.33570074 124.45507812 123.50390625 C127.30071689 126.33863234 130.14947453 129.17018824 133 132 C131.41207066 135.86003219 128.94858507 138.29780488 126.01400757 141.22650146 C125.50185467 141.74036321 124.98970178 142.25422495 124.4620291 142.78365827 C122.74551635 144.50346398 121.02195547 146.2160261 119.29833984 147.92871094 C118.06610385 149.16038278 116.83430811 150.3924952 115.60292053 151.62501526 C112.258436 154.97007414 108.90781626 158.30892623 105.55607557 161.6467123 C102.05445392 165.1358403 98.55848673 168.63062436 95.06192017 172.12481689 C88.43965848 178.74085981 81.81231456 185.3517875 75.18313754 191.96090055 C67.63636922 199.48532225 60.09527207 207.01541669 52.55465007 214.54599714 C37.0427432 230.03699301 21.52371482 245.52083765 6 261 C0.8383079 259.13155278 -1.5034039 256.8135409 -4.09656715 251.93849754 C-5.39589497 247.71231557 -5.2822572 243.69440888 -5.26742554 239.29653931 C-5.27195665 238.31307002 -5.27648776 237.32960074 -5.28115618 236.31632936 C-5.29382642 233.017642 -5.29217811 229.71911918 -5.29052734 226.42041016 C-5.29651092 224.05667406 -5.30331606 221.69293993 -5.31088257 219.32920837 C-5.32856636 212.90567516 -5.33323893 206.48219521 -5.33451414 200.05864 C-5.33550232 196.04652887 -5.34007433 192.03442707 -5.34550858 188.02231979 C-5.36311792 174.75096898 -5.37234786 161.47965049 -5.37084763 148.20828791 C-5.37076772 147.49308806 -5.3706878 146.7778882 -5.37060547 146.04101562 C-5.37052371 145.32494115 -5.37044195 144.60886667 -5.37035771 143.87109296 C-5.36954476 132.26543577 -5.3886854 120.65990835 -5.4168822 109.0542887 C-5.44561569 97.13358654 -5.45942226 85.21294766 -5.45769465 73.29220998 C-5.45703093 66.60124543 -5.46290428 59.91043733 -5.48405075 53.2195015 C-5.50339402 46.9272534 -5.50358414 40.63529289 -5.48901749 34.34303474 C-5.4869235 32.03355935 -5.4916652 29.72406614 -5.5037384 27.41462135 C-5.51915278 24.2618842 -5.50990719 21.11014337 -5.49447632 17.95742798 C-5.50476344 17.04350993 -5.51505057 16.12959188 -5.52564943 15.18797934 C-5.46060367 9.17425258 -4.43959161 4.43959161 0 0 Z " fill="#FDFEFE" transform="translate(139,128)"/>
<path d="M0 0 C6.13044441 0.44292209 10.70084486 3.29404049 15.9375 6.25 C16.90260498 6.7857666 17.86770996 7.3215332 18.86206055 7.87353516 C21.91395894 9.57202156 24.95786364 11.28409837 28 13 C28.94713867 13.53270508 29.89427734 14.06541016 30.87011719 14.61425781 C35.61521661 17.28451014 40.35442089 19.96497238 45.08984375 22.65234375 C51.17279281 26.1024199 57.27201308 29.52302216 63.375 32.9375 C64.41374268 33.51870605 65.45248535 34.09991211 66.52270508 34.69873047 C68.62932568 35.87723897 70.73601527 37.05562416 72.84277344 38.23388672 C78.06293711 41.15398137 83.28138679 44.07713566 88.5 47 C90.58332501 48.16668154 92.66665834 49.3333482 94.75 50.5 C101 54 101 54 107.25 57.5 C108.2819751 58.07790283 109.3139502 58.65580566 110.37719727 59.2512207 C112.45321749 60.41379852 114.52922667 61.57639607 116.60522461 62.73901367 C121.92535648 65.71840447 127.24570045 68.6974155 132.56640625 71.67578125 C144.05113247 78.105034 155.5325625 84.53995324 167 91 C165.59742396 94.17478244 163.93680701 96.30973272 161.48046875 98.75 C160.78759766 99.4409375 160.09472656 100.131875 159.38085938 100.84375 C158.65705078 101.5553125 157.93324219 102.266875 157.1875 103 C156.47529297 103.7115625 155.76308594 104.423125 155.02929688 105.15625 C151.49248339 108.66361731 147.92692605 111.92707088 144 115 C143.401875 115.763125 142.80375 116.52625 142.1875 117.3125 C139.69054149 120.38019188 136.91132596 122.79883671 133.90234375 125.3515625 C132.18778129 126.83728192 130.58115759 128.37451089 129 130 C125.10933452 128.40542589 122.64975127 125.89719447 119.69995117 122.94287109 C119.1839183 122.42873657 118.66788544 121.91460205 118.13621521 121.3848877 C116.43354343 119.68591614 114.73817549 117.97985512 113.04296875 116.2734375 C111.85512707 115.0844026 110.66691427 113.89573835 109.47834778 112.70742798 C106.98627879 110.21379498 104.49760293 107.71684073 102.01147461 105.21728516 C98.84269987 102.03160407 95.66746682 98.85246086 92.48984814 95.67560387 C90.03326991 93.21875195 87.57932049 90.75928821 85.12621498 88.29896927 C83.95755061 87.12714652 82.78830059 85.9559075 81.61842918 84.78528976 C76.1750943 79.33468332 70.81003301 73.87751439 65.79951477 68.0206604 C62.2350185 64.01811672 58.38900899 60.28183753 54.58444214 56.50927734 C53.02526273 54.9630726 51.46941379 53.41358104 49.91430664 51.86328125 C46.61236864 48.57267017 43.30649584 45.28603038 40 42 C36.16288524 38.18663495 32.32748325 34.37157851 28.49630737 30.55224609 C26.97690534 29.03923948 25.45448297 27.5293203 23.93188477 26.01953125 C19.25080422 21.36290906 14.68503252 16.66054953 10.40574646 11.62840271 C8.40994257 9.31648335 6.25084878 7.1909965 4.0625 5.0625 C2.69012855 3.72678621 1.32982791 2.37807563 0 1 C0 0.67 0 0.34 0 0 Z " fill="#FCFEFE" transform="translate(150,125)"/>
<path d="M0 0 C3.88388656 1.5818384 6.50166062 4.22809853 9.39453125 7.1640625 C9.90497482 7.67496429 10.4154184 8.18586609 10.94132996 8.71224976 C12.02031057 9.79424592 13.09686524 10.87866599 14.17114258 11.96533203 C15.79141795 13.60368276 17.41936932 15.23406937 19.04882812 16.86328125 C24.56875307 22.4025699 29.97150463 28.00410093 35 34 C31.85556529 37.51814654 28.39002391 39.62808199 24.2421875 41.7578125 C23.5866539 42.10218857 22.9311203 42.44656464 22.25572205 42.80137634 C20.85676891 43.5354112 19.45609628 44.26617681 18.05386353 44.993927 C15.1133174 46.52039816 12.18148284 48.06324107 9.24928284 49.60566711 C7.79902454 50.36853357 6.3483738 51.13065445 4.89732361 51.89201355 C-0.1673649 54.55154005 -5.19867468 57.26281202 -10.1875 60.0625 C-10.85217285 60.43487793 -11.5168457 60.80725586 -12.20166016 61.19091797 C-13.63122441 61.99231507 -15.06057671 62.79409034 -16.48974609 63.59619141 C-21.98197227 66.66760752 -27.4914254 69.70803526 -33 72.75 C-33.62073395 73.09295105 -34.2414679 73.4359021 -34.88101196 73.78924561 C-43.68063136 78.64870075 -52.51341972 83.44170264 -61.375 88.1875 C-74.20666725 95.06334783 -86.87704652 102.20983582 -99.51318359 109.4375 C-101.77781724 110.73236464 -104.0450181 112.02263223 -106.3125 113.3125 C-106.97072754 113.69188721 -107.62895508 114.07127441 -108.30712891 114.4621582 C-112.77416522 117 -112.77416522 117 -115 117 C-113.52720669 113.59698898 -111.62679191 111.37553925 -109.01452637 108.76055908 C-108.18166611 107.92205917 -107.34880585 107.08355927 -106.4907074 106.21965027 C-105.11762169 104.85263725 -105.11762169 104.85263725 -103.71679688 103.45800781 C-102.74397456 102.48247471 -101.77157808 101.5065168 -100.79957581 100.53016663 C-98.16175247 97.88322996 -95.51764723 95.24265334 -92.87209511 92.6034441 C-90.10603092 89.84244246 -87.34484857 87.07656567 -84.58288574 84.3114624 C-79.94605711 79.67099609 -75.30502896 75.03476115 -70.66162109 70.40087891 C-65.28759707 65.03775187 -59.9208334 59.66744036 -54.55775976 54.29336476 C-49.95588066 49.68242243 -45.35013141 45.07537314 -40.74109888 40.47158122 C-37.98689439 37.7205001 -35.23407175 34.96807285 -32.48472595 32.21213531 C-29.90210069 29.62375077 -27.31466668 27.04027334 -24.72337151 24.46056938 C-23.31534165 23.05646303 -21.91225624 21.64740394 -20.5092926 20.23823547 C-19.26000221 18.99740456 -19.26000221 18.99740456 -17.98547363 17.73150635 C-17.25985481 17.00664158 -16.53423599 16.28177681 -15.78662872 15.53494644 C-14 14 -14 14 -12 14 C-11.67 13.01 -11.34 12.02 -11 11 C-9.2578125 9.31640625 -9.2578125 9.31640625 -7.125 7.5625 C-4.31138586 5.24204701 -2.09258206 2.99410327 0 0 Z " fill="#FDFEFE" transform="translate(277,267)"/>
<path d="M0 0 C3.69991533 1.15645129 7.02329173 2.41023664 10.37109375 4.36328125 C11.58732422 5.06590088 11.58732422 5.06590088 12.828125 5.78271484 C13.68921875 6.28754395 14.5503125 6.79237305 15.4375 7.3125 C17.30015167 8.39561467 19.16345812 9.47760392 21.02734375 10.55859375 C22.48309814 11.40333252 22.48309814 11.40333252 23.96826172 12.26513672 C27.06540042 14.03742434 30.18545898 15.76087892 33.31640625 17.47265625 C34.86533569 18.32573364 34.86533569 18.32573364 36.44555664 19.19604492 C38.44090912 20.29284286 40.4412294 21.38066421 42.44702148 22.45825195 C47.74152477 25.38834656 51.64378135 27.90660813 55 33 C55.68417622 36.91846382 56.00798509 39.25259246 54.01586914 42.70605469 C49.48875996 48.22695931 44.04292964 51.10264033 37.75 54.3125 C35.59592384 55.44449401 33.44228188 56.57731463 31.2890625 57.7109375 C30.2259082 58.26491211 29.16275391 58.81888672 28.06738281 59.38964844 C23.71649813 61.67382827 19.41687178 64.04475606 15.125 66.4375 C14.39619629 66.83976807 13.66739258 67.24203613 12.91650391 67.65649414 C8.12377927 70.31646188 3.47846787 73.14727994 -1.0546875 76.234375 C-3 77 -3 77 -4.90287781 76.24740601 C-7.08165551 74.95142983 -8.69213048 73.58113644 -10.49926758 71.80712891 C-11.16287796 71.15950592 -11.82648834 70.51188293 -12.51020813 69.84463501 C-13.21453476 69.14567108 -13.91886139 68.44670715 -14.64453125 67.7265625 C-15.37371262 67.00640961 -16.10289398 66.28625671 -16.85417175 65.54428101 C-18.39077185 64.02217102 -19.92459036 62.49724854 -21.45581055 60.96972656 C-23.80909068 58.62839201 -26.18037388 56.30635386 -28.55273438 53.984375 C-30.04281194 52.50375586 -31.53178323 51.02202238 -33.01953125 49.5390625 C-33.73397903 48.84414703 -34.44842682 48.14923157 -35.18452454 47.43325806 C-35.83237411 46.77933075 -36.48022369 46.12540344 -37.14770508 45.45166016 C-37.72410233 44.88033356 -38.30049957 44.30900696 -38.8943634 43.72036743 C-40 42 -40 42 -39.83175659 39.9425354 C-38.4749505 36.77376718 -35.84970111 34.8272027 -33.30078125 32.609375 C-32.1080528 31.54079083 -30.91753452 30.46973564 -29.72900391 29.39648438 C-29.11236877 28.84017334 -28.49573364 28.2838623 -27.8604126 27.71069336 C-24.84098029 24.93425398 -21.93903762 22.0447592 -19.04296875 19.140625 C-18.47691925 18.57355835 -17.91086975 18.0064917 -17.32766724 17.42224121 C-15.61226809 15.70014714 -13.89980941 13.97516568 -12.1875 12.25 C-10.99438027 11.05184464 -9.8010218 9.85392698 -8.60742188 8.65625 C-5.73553873 5.77354896 -2.8668456 2.88771056 0 0 Z " fill="#FDFEFE" transform="translate(324,221)"/>
<path d="M0 0 C0.99 0.495 0.99 0.495 2 1 C1.01 1.495 1.01 1.495 0 2 C0 1.34 0 0.68 0 0 Z M-11 11 C-10.34 11.33 -9.68 11.66 -9 12 C-9.99 12.66 -10.98 13.32 -12 14 C-11.67 13.01 -11.34 12.02 -11 11 Z M-14 14 C-13.01 14.495 -13.01 14.495 -12 15 C-12.76532925 15.76256387 -12.76532925 15.76256387 -13.54611969 16.54053307 C-25.94445788 28.89475655 -38.33729567 41.2544705 -50.72399139 53.62036705 C-56.71416704 59.60021777 -62.70620888 65.57817609 -68.70263672 71.55175781 C-73.92740238 76.75662678 -79.14867619 81.96496862 -84.36573744 87.17756045 C-87.12979777 89.93900708 -89.89560835 92.6986492 -92.66560364 95.45414352 C-95.27013501 98.04514969 -97.86998916 100.6407562 -100.4662571 103.24004173 C-101.87992426 104.65289208 -103.29857276 106.06075263 -104.71733093 107.4684906 C-105.55033218 108.30424118 -106.38333344 109.13999176 -107.24157715 110.00106812 C-107.97163719 110.72928457 -108.70169724 111.45750103 -109.45388031 112.20778465 C-111.21773592 113.85789879 -111.21773592 113.85789879 -111 116 C-112.98 116.495 -112.98 116.495 -115 117 C-113.52630723 113.59109215 -111.62192589 111.37478178 -109.00106812 108.76055908 C-108.16531754 107.92205917 -107.32956696 107.08355927 -106.4684906 106.21965027 C-105.54995804 105.30830826 -104.63142548 104.39696625 -103.68505859 103.45800781 C-102.70897691 102.48249044 -101.73333574 101.50653212 -100.75810242 100.53016663 C-98.1119385 97.88342897 -95.45965413 95.24290245 -92.80623198 92.6034441 C-90.03331342 89.84302927 -87.26605875 87.07694845 -84.49819946 84.3114624 C-79.25715988 79.07663863 -74.01104297 73.84693394 -68.76308501 68.61904693 C-62.7882296 62.66654735 -56.81905321 56.70836677 -50.85034823 50.74970102 C-38.57320914 38.49346622 -26.28895352 26.24438858 -14 14 Z " fill="#D4EFF3" transform="translate(277,267)"/>
</svg>
